<svg width="24" height="24" viewBox="0 0 24 24" fill="none" xmlns="http://www.w3.org/2000/svg">
<path opacity="0.5" d="M23.9942 0.656291L18.1221 21.8034C18.0923 21.8994 17.9728 21.9282 17.9032 21.861L13.9719 18.0693L16.9178 7.47174C16.9477 7.37575 16.8581 7.28936 16.7586 7.31816L5.77089 10.1595L1.8595 6.38703C1.78984 6.31984 1.81969 6.20465 1.91922 6.17585L23.8349 0.502703C23.9345 0.483505 24.024 0.569898 23.9942 0.656291Z" fill="#00B37E"/>
<path opacity="0.5" d="M13.9717 18.0691L12.4589 23.5407C12.429 23.6367 12.3096 23.6654 12.2399 23.5983L0.037969 11.8392C-0.0316994 11.772 -0.00184166 11.6568 0.0976847 11.628L5.77069 10.1593L13.9717 18.0691Z" fill="#00B37E"/>
<path d="M16.9173 7.47153L13.9714 18.0691L5.77039 10.1593L16.7581 7.31794C16.8576 7.28914 16.9472 7.37553 16.9173 7.47153Z" fill="#00B37E"/>
</svg>
